<?xml version="1.0" encoding="UTF-8" standalone="no"?>
<!-- Generator: Adobe Illustrator 18.0.0, SVG Export Plug-In . SVG Version: 6.00 Build 0)  -->

<svg
   version="1.1"
   id="Capa_1"
   x="0px"
   y="0px"
   viewBox="0 0 206.738 206.738"
   xml:space="preserve"
   sodipodi:docname="c341aa981a9f21af302ca93049825f9a.svg"
   width="206.73801"
   height="206.73801"
   xmlns:inkscape="http://www.inkscape.org/namespaces/inkscape"
   xmlns:sodipodi="http://sodipodi.sourceforge.net/DTD/sodipodi-0.dtd"
   xmlns="http://www.w3.org/2000/svg"
   xmlns:svg="http://www.w3.org/2000/svg"><defs
   id="defs41" /><sodipodi:namedview
   id="namedview39"
   pagecolor="#ffffff"
   bordercolor="#666666"
   borderopacity="1.0"
   inkscape:pageshadow="2"
   inkscape:pageopacity="0.0"
   inkscape:pagecheckerboard="0" />
<g
   id="g6">
	<path
   d="M 135.326,63.912 H 71.413 c -4.143,0 -7.5,3.357 -7.5,7.5 v 63.914 c 0,4.143 3.358,7.5 7.5,7.5 h 63.913 c 4.143,0 7.5,-3.357 7.5,-7.5 V 71.412 c 0,-4.142 -3.357,-7.5 -7.5,-7.5 z m -7.5,63.914 H 78.913 V 78.912 h 48.913 z"
   id="path2" />
	<path
   d="m 199.238,110.869 c 4.143,0 7.5,-3.357 7.5,-7.5 0,-4.143 -3.357,-7.5 -7.5,-7.5 H 174.783 V 78.912 h 24.455 c 4.143,0 7.5,-3.357 7.5,-7.5 0,-4.143 -3.357,-7.5 -7.5,-7.5 H 174.783 V 39.455 c 0,-4.143 -3.357,-7.5 -7.5,-7.5 H 142.826 V 7.5 c 0,-4.143 -3.357,-7.5 -7.5,-7.5 -4.143,0 -7.5,3.357 -7.5,7.5 V 31.955 H 110.869 V 7.5 c 0,-4.143 -3.357,-7.5 -7.5,-7.5 -4.143,0 -7.5,3.357 -7.5,7.5 V 31.955 H 78.913 V 7.5 c 0,-4.143 -3.357,-7.5 -7.5,-7.5 -4.143,0 -7.5,3.357 -7.5,7.5 V 31.955 H 39.456 c -4.143,0 -7.5,3.358 -7.5,7.5 V 63.912 H 7.5 c -4.143,0 -7.5,3.357 -7.5,7.5 0,4.143 3.357,7.5 7.5,7.5 H 31.956 V 95.869 H 7.5 c -4.143,0 -7.5,3.357 -7.5,7.5 0,4.143 3.357,7.5 7.5,7.5 h 24.456 v 16.957 H 7.5 c -4.143,0 -7.5,3.357 -7.5,7.5 0,4.143 3.357,7.5 7.5,7.5 h 24.456 v 24.457 c 0,4.143 3.357,7.5 7.5,7.5 h 24.457 v 24.455 c 0,4.143 3.358,7.5 7.5,7.5 4.143,0 7.5,-3.357 7.5,-7.5 v -24.455 h 16.956 v 24.455 c 0,4.143 3.357,7.5 7.5,7.5 4.143,0 7.5,-3.357 7.5,-7.5 v -24.455 h 16.957 v 24.455 c 0,4.143 3.357,7.5 7.5,7.5 4.143,0 7.5,-3.357 7.5,-7.5 v -24.455 h 24.457 c 4.143,0 7.5,-3.357 7.5,-7.5 v -24.457 h 24.455 c 4.143,0 7.5,-3.357 7.5,-7.5 0,-4.143 -3.357,-7.5 -7.5,-7.5 h -24.455 v -16.957 z m -39.455,48.914 H 46.956 V 46.955 h 112.827 z"
   id="path4" />
</g>
<g
   id="g8">
</g>
<g
   id="g10">
</g>
<g
   id="g12">
</g>
<g
   id="g14">
</g>
<g
   id="g16">
</g>
<g
   id="g18">
</g>
<g
   id="g20">
</g>
<g
   id="g22">
</g>
<g
   id="g24">
</g>
<g
   id="g26">
</g>
<g
   id="g28">
</g>
<g
   id="g30">
</g>
<g
   id="g32">
</g>
<g
   id="g34">
</g>
<g
   id="g36">
</g>
</svg>
